<svg width="500" height="373" viewBox="0 0 500 373" fill="none" xmlns="http://www.w3.org/2000/svg">
<g clip-path="url(#clip0_4_266)">
<path d="M500 327.4H0V327.65H500V327.4Z" fill="#EBEBEB"/>
<path d="M449.9 343.49H416.78V343.74H449.9V343.49Z" fill="#EBEBEB"/>
<path d="M331.22 346.21H322.53V346.46H331.22V346.21Z" fill="#EBEBEB"/>
<path d="M415.78 334.21H396.59V334.46H415.78V334.21Z" fill="#EBEBEB"/>
<path d="M95.65 335.89H52.46V336.14H95.65V335.89Z" fill="#EBEBEB"/>
<path d="M110.89 335.89H104.56V336.14H110.89V335.89Z" fill="#EBEBEB"/>
<path d="M225.15 340.11H131.47V340.36H225.15V340.11Z" fill="#EBEBEB"/>
<path d="M237 282.8H43.91C42.3974 282.797 40.9476 282.195 39.8789 281.124C38.8102 280.054 38.21 278.603 38.21 277.09V5.66C38.2232 4.15603 38.8292 2.71798 39.8965 1.65822C40.9637 0.598458 42.406 0.00257639 43.91 0H237C238.514 0 239.967 0.601588 241.038 1.67242C242.108 2.74325 242.71 4.19561 242.71 5.71V277.09C242.71 278.604 242.108 280.057 241.038 281.128C239.967 282.198 238.514 282.8 237 282.8ZM43.91 0.200001C42.4637 0.20265 41.0775 0.779065 40.0557 1.80273C39.0339 2.82639 38.46 4.21365 38.46 5.66V277.09C38.46 278.536 39.0339 279.924 40.0557 280.947C41.0775 281.971 42.4637 282.547 43.91 282.55H237C238.447 282.547 239.835 281.971 240.858 280.948C241.881 279.924 242.457 278.537 242.46 277.09V5.66C242.457 4.21273 241.881 2.82549 240.858 1.80212C239.835 0.77874 238.447 0.202644 237 0.200001H43.91Z" fill="#EBEBEB"/>
<path d="M453.31 282.8H260.21C258.696 282.797 257.246 282.195 256.175 281.125C255.105 280.054 254.503 278.604 254.5 277.09V5.66C254.516 4.15511 255.124 2.71708 256.193 1.65759C257.262 0.598109 258.705 0.00254829 260.21 0H453.31C454.812 0.0052045 456.252 0.602249 457.317 1.66173C458.382 2.72121 458.987 4.15775 459 5.66V277.09C459 278.601 458.401 280.05 457.335 281.121C456.268 282.191 454.821 282.795 453.31 282.8ZM260.21 0.200001C258.763 0.202644 257.375 0.77874 256.352 1.80212C255.329 2.82549 254.753 4.21273 254.75 5.66V277.09C254.753 278.537 255.329 279.924 256.352 280.948C257.375 281.971 258.763 282.547 260.21 282.55H453.31C454.757 282.547 456.145 281.971 457.168 280.948C458.191 279.924 458.767 278.537 458.77 277.09V5.66C458.767 4.21273 458.191 2.82549 457.168 1.80212C456.145 0.77874 454.757 0.202644 453.31 0.200001H260.21Z" fill="#EBEBEB"/>
<path d="M85.4 182.77H91.03L91.03 64.27H85.4L85.4 182.77Z" fill="#E0E0E0"/>
<path d="M195.79 64.28H88.65V182.78H195.79V64.28Z" fill="#E0E0E0"/>
<path d="M199.21 64.28H88.08V182.78H199.21V64.28Z" fill="#F0F0F0"/>
<path d="M194.51 68.0601H92.61V177.33H194.51V68.0601Z" fill="white"/>
<path d="M194.51 68.0601H191.56V177.33H194.51V68.0601Z" fill="#E0E0E0"/>
<path d="M92.34 146.63V149.58H191.87V146.63H92.34Z" fill="#E0E0E0"/>
<path d="M194.51 141.69H91.03V146.64H194.51V141.69Z" fill="#F0F0F0"/>
<path d="M273.71 325.55H421.12V138.88L273.71 138.88V325.55Z" fill="#F0F0F0"/>
<path d="M278.92 185.59L415.91 185.59V145.67H278.92V185.59Z" fill="#E0E0E0"/>
<path d="M408.12 185.59H415.9V152.14H408.12V185.59Z" fill="#EBEBEB"/>
<path d="M370.49 185.59H378.27V152.14H370.49V185.59Z" fill="#EBEBEB"/>
<path d="M322.099 184.267L329.766 185.588L335.448 152.625L327.781 151.303L322.099 184.267Z" fill="#EBEBEB"/>
<path d="M398.49 185.59H406.27V156.54H398.49V185.59Z" fill="#EBEBEB"/>
<path d="M380.59 185.59H388.37V156.54H380.59V185.59Z" fill="#EBEBEB"/>
<path d="M335.44 185.59H343.22V156.54H335.44V185.59Z" fill="#EBEBEB"/>
<path d="M353.986 183.901L361.581 185.589L367.883 157.231L360.289 155.543L353.986 183.901Z" fill="#EBEBEB"/>
<path d="M391.76 185.59H395.65V150.47H391.76V185.59Z" fill="#EBEBEB"/>
<path d="M345.47 185.59H349.36V150.47H345.47V185.59Z" fill="#EBEBEB"/>
<path d="M415.9 191.92H278.91V231.84H415.9V191.92Z" fill="#E0E0E0"/>
<path d="M286.69 198.38H278.91V231.83H286.69V198.38Z" fill="#EBEBEB"/>
<path d="M324.32 198.38H316.54V231.83H324.32V198.38Z" fill="#EBEBEB"/>
<path d="M367.043 197.534L359.376 198.855L365.058 231.819L372.725 230.498L367.043 197.534Z" fill="#EBEBEB"/>
<path d="M296.34 202.79H288.56V231.84H296.34V202.79Z" fill="#EBEBEB"/>
<path d="M314.22 202.79H306.44V231.84H314.22V202.79Z" fill="#EBEBEB"/>
<path d="M359.37 202.79H351.59V231.84H359.37V202.79Z" fill="#EBEBEB"/>
<path d="M334.554 201.778L326.959 203.466L333.262 231.824L340.856 230.136L334.554 201.778Z" fill="#EBEBEB"/>
<path d="M303.07 196.72H299.18V231.84H303.07V196.72Z" fill="#EBEBEB"/>
<path d="M349.35 196.72H345.46V231.84H349.35V196.72Z" fill="#EBEBEB"/>
<path d="M408.12 231.83H415.9V198.38H408.12V231.83Z" fill="#EBEBEB"/>
<path d="M398.49 231.83H406.27V202.78H398.49V231.83Z" fill="#EBEBEB"/>
<path d="M380.59 231.83H388.37V202.78H380.59V231.83Z" fill="#EBEBEB"/>
<path d="M391.76 231.83H395.65V196.71H391.76V231.83Z" fill="#EBEBEB"/>
<path d="M278.92 278.07H415.91V238.15H278.92V278.07Z" fill="#E0E0E0"/>
<path d="M329.49 278.07H337.27V244.62H329.49V278.07Z" fill="#EBEBEB"/>
<path d="M281.102 276.735L288.769 278.057L294.451 245.093L286.784 243.771L281.102 276.735Z" fill="#EBEBEB"/>
<path d="M357.49 278.07H365.27V249.02H357.49V278.07Z" fill="#EBEBEB"/>
<path d="M339.6 278.07H347.38V249.02H339.6V278.07Z" fill="#EBEBEB"/>
<path d="M294.44 278.07H302.22V249.02H294.44V278.07Z" fill="#EBEBEB"/>
<path d="M312.993 276.369L320.588 278.056L326.891 249.698L319.296 248.01L312.993 276.369Z" fill="#EBEBEB"/>
<path d="M350.76 278.07H354.65V242.95H350.76V278.07Z" fill="#EBEBEB"/>
<path d="M304.47 278.07H308.36V242.95H304.47V278.07Z" fill="#EBEBEB"/>
<path d="M370.633 276.737L378.3 278.059L383.982 245.095L376.315 243.773L370.633 276.737Z" fill="#EBEBEB"/>
<path d="M383.98 278.07H391.76V249.02H383.98V278.07Z" fill="#EBEBEB"/>
<path d="M402.526 276.365L410.12 278.053L416.423 249.695L408.828 248.007L402.526 276.365Z" fill="#EBEBEB"/>
<path d="M393.99 278.07H397.88V242.95H393.99V278.07Z" fill="#EBEBEB"/>
<path d="M176.4 210.78H90.84C88.6308 210.776 86.4425 211.208 84.4002 212.05C82.3579 212.892 80.5017 214.129 78.9377 215.689C77.3737 217.25 76.1326 219.103 75.2853 221.143C74.4381 223.184 74.0013 225.371 74 227.58V294.4H193.21V227.58C193.21 225.373 192.775 223.188 191.93 221.149C191.085 219.11 189.847 217.257 188.286 215.697C186.725 214.137 184.872 212.9 182.832 212.056C180.793 211.212 178.607 210.779 176.4 210.78Z" fill="#E6E6E6"/>
<path d="M218.51 260.3H203.2C200.548 260.3 198.004 261.354 196.129 263.229C194.254 265.104 193.2 267.648 193.2 270.3V325.55H228.48V270.29C228.477 267.645 227.427 265.108 225.558 263.236C223.69 261.364 221.155 260.308 218.51 260.3Z" fill="#E0E0E0"/>
<path d="M218.51 260.3H218.18C215.528 260.3 212.984 261.354 211.109 263.229C209.234 265.104 208.18 267.648 208.18 270.3V325.55H228.47V270.29C228.467 267.647 227.418 265.112 225.552 263.24C223.685 261.368 221.153 260.311 218.51 260.3Z" fill="#EBEBEB"/>
<path d="M203.93 300.16H86.5V325.54H203.93V300.16Z" fill="#E6E6E6"/>
<path d="M204.09 276.95H90.84C85.2343 276.95 80.69 281.494 80.69 287.1V293.43C80.69 299.036 85.2343 303.58 90.84 303.58H204.09C209.696 303.58 214.24 299.036 214.24 293.43V287.1C214.24 281.494 209.696 276.95 204.09 276.95Z" fill="#F5F5F5"/>
<path d="M105.08 276.95H91.03C85.4243 276.95 80.88 281.494 80.88 287.1V293.43C80.88 299.036 85.4243 303.58 91.03 303.58H105.08C110.686 303.58 115.23 299.036 115.23 293.43V287.1C115.23 281.494 110.686 276.95 105.08 276.95Z" fill="#E0E0E0"/>
<path d="M89.51 260.3H74.2C71.5478 260.3 69.0043 261.354 67.1289 263.229C65.2536 265.104 64.2 267.648 64.2 270.3V325.55H99.5V270.29C99.4974 267.641 98.444 265.102 96.5711 263.229C94.6982 261.356 92.1587 260.303 89.51 260.3Z" fill="#E0E0E0"/>
<path d="M89.51 260.3H89.19C86.5378 260.3 83.9943 261.354 82.1189 263.229C80.2436 265.104 79.19 267.648 79.19 270.3V325.55H99.5V270.29C99.4974 267.641 98.444 265.102 96.5711 263.229C94.6982 261.356 92.1587 260.303 89.51 260.3Z" fill="#F0F0F0"/>
<path d="M343.68 94.5301C354.925 94.5301 364.04 85.4146 364.04 74.1701C364.04 62.9255 354.925 53.8101 343.68 53.8101C332.435 53.8101 323.32 62.9255 323.32 74.1701C323.32 85.4146 332.435 94.5301 343.68 94.5301Z" fill="#E0E0E0"/>
<path d="M360.784 76.9502C362.316 67.5136 355.908 58.6221 346.471 57.0903C337.034 55.5585 328.143 61.9666 326.611 71.4031C325.079 80.8397 331.487 89.7312 340.924 91.263C350.361 92.7948 359.252 86.3867 360.784 76.9502Z" fill="#F0F0F0"/>
<path d="M342.87 62.29V74.39L334.85 69.85" fill="#F0F0F0"/>
<path d="M342.87 75.26C342.718 75.2606 342.569 75.219 342.44 75.14L334.44 70.61C334.252 70.4899 334.117 70.3022 334.064 70.0856C334.01 69.8691 334.042 69.6403 334.153 69.4465C334.263 69.2527 334.444 69.1086 334.657 69.0442C334.871 68.9797 335.101 68.9997 335.3 69.1L342.02 72.91V62.29C342.043 62.0767 342.144 61.8793 342.304 61.7359C342.463 61.5925 342.67 61.5132 342.885 61.5132C343.1 61.5132 343.307 61.5925 343.466 61.7359C343.626 61.8793 343.727 62.0767 343.75 62.29V74.39C343.751 74.5419 343.712 74.6913 343.636 74.823C343.561 74.9547 343.451 75.0641 343.32 75.14C343.185 75.2227 343.028 75.2644 342.87 75.26Z" fill="#E0E0E0"/>
<path d="M250 372.57C357.082 372.57 443.89 366.405 443.89 358.8C443.89 351.195 357.082 345.03 250 345.03C142.917 345.03 56.11 351.195 56.11 358.8C56.11 366.405 142.917 372.57 250 372.57Z" fill="#F5F5F5"/>
<path d="M388.66 150.82H361.66C359.201 150.82 356.844 151.797 355.105 153.535C353.367 155.274 352.39 157.632 352.39 160.09V171.27C352.39 173.729 353.367 176.086 355.105 177.825C356.844 179.563 359.201 180.54 361.66 180.54H373.2L376.3 190.33L379.43 180.54H388.61C391.069 180.54 393.426 179.563 395.165 177.825C396.903 176.086 397.88 173.729 397.88 171.27V160.09C397.88 157.64 396.91 155.29 395.183 153.553C393.455 151.816 391.11 150.833 388.66 150.82Z" fill="#6EC9A4"/>
<path d="M364.68 165C364.68 165.37 364.57 165.732 364.365 166.039C364.159 166.347 363.867 166.586 363.526 166.728C363.184 166.869 362.808 166.906 362.445 166.834C362.082 166.762 361.749 166.584 361.488 166.322C361.226 166.061 361.048 165.728 360.976 165.365C360.904 165.002 360.941 164.626 361.082 164.285C361.224 163.943 361.464 163.651 361.771 163.445C362.079 163.24 362.44 163.13 362.81 163.13C363.056 163.13 363.299 163.178 363.526 163.272C363.752 163.366 363.959 163.504 364.132 163.678C364.306 163.851 364.444 164.058 364.538 164.285C364.632 164.511 364.68 164.755 364.68 165ZM371.06 163.13C370.69 163.13 370.329 163.24 370.021 163.445C369.714 163.651 369.474 163.943 369.332 164.285C369.191 164.626 369.154 165.002 369.226 165.365C369.298 165.728 369.476 166.061 369.738 166.322C369.999 166.584 370.332 166.762 370.695 166.834C371.058 166.906 371.434 166.869 371.776 166.728C372.117 166.586 372.409 166.347 372.615 166.039C372.82 165.732 372.93 165.37 372.93 165C372.92 164.511 372.718 164.046 372.368 163.704C372.019 163.362 371.549 163.17 371.06 163.17V163.13ZM379.31 163.13C378.94 163.13 378.579 163.24 378.271 163.445C377.964 163.651 377.724 163.943 377.582 164.285C377.441 164.626 377.404 165.002 377.476 165.365C377.548 165.728 377.726 166.061 377.988 166.322C378.249 166.584 378.582 166.762 378.945 166.834C379.308 166.906 379.684 166.869 380.026 166.728C380.367 166.586 380.659 166.347 380.865 166.039C381.07 165.732 381.18 165.37 381.18 165C381.17 164.511 380.968 164.046 380.618 163.704C380.269 163.362 379.799 163.17 379.31 163.17V163.13ZM387.56 163.13C387.19 163.13 386.829 163.24 386.521 163.445C386.214 163.651 385.974 163.943 385.832 164.285C385.691 164.626 385.654 165.002 385.726 165.365C385.798 165.728 385.976 166.061 386.238 166.322C386.499 166.584 386.832 166.762 387.195 166.834C387.558 166.906 387.934 166.869 388.276 166.728C388.617 166.586 388.909 166.347 389.115 166.039C389.32 165.732 389.43 165.37 389.43 165C389.42 164.511 389.218 164.046 388.868 163.704C388.519 163.362 388.049 163.17 387.56 163.17V163.13Z" fill="white"/>
<path d="M111.5 183.82H84.55C83.3327 183.82 82.1272 184.06 81.0026 184.526C79.8779 184.992 78.8559 185.674 77.9951 186.535C77.1343 187.396 76.4515 188.418 75.9857 189.543C75.5198 190.667 75.28 191.873 75.28 193.09V204.27C75.28 206.729 76.2567 209.086 77.9951 210.825C79.7336 212.563 82.0915 213.54 84.55 213.54H96.09L99.19 223.32L102.32 213.54H111.5C113.959 213.54 116.316 212.563 118.055 210.825C119.793 209.086 120.77 206.729 120.77 204.27V193.09C120.77 191.873 120.53 190.667 120.064 189.543C119.599 188.418 118.916 187.396 118.055 186.535C117.194 185.674 116.172 184.992 115.048 184.526C113.923 184.06 112.717 183.82 111.5 183.82Z" fill="#6EC9A4"/>
<path d="M87.52 198C87.52 198.37 87.4104 198.731 87.2049 199.039C86.9994 199.346 86.7073 199.586 86.3656 199.728C86.0239 199.869 85.648 199.906 85.2852 199.834C84.9225 199.762 84.5893 199.584 84.3277 199.322C84.0662 199.061 83.8881 198.728 83.816 198.365C83.7438 198.002 83.7808 197.626 83.9224 197.284C84.0639 196.943 84.3036 196.651 84.6111 196.445C84.9186 196.24 85.2802 196.13 85.65 196.13C86.146 196.13 86.6216 196.327 86.9723 196.678C87.323 197.028 87.52 197.504 87.52 198ZM93.9 196.13C93.5302 196.13 93.1686 196.24 92.8611 196.445C92.5536 196.651 92.3139 196.943 92.1724 197.284C92.0308 197.626 91.9938 198.002 92.066 198.365C92.1381 198.728 92.3162 199.061 92.5777 199.322C92.8393 199.584 93.1725 199.762 93.5352 199.834C93.898 199.906 94.2739 199.869 94.6156 199.728C94.9573 199.586 95.2494 199.346 95.4549 199.039C95.6604 198.731 95.77 198.37 95.77 198C95.7621 197.51 95.5613 197.043 95.2112 196.701C94.8611 196.358 94.3899 196.167 93.9 196.17V196.13ZM102.15 196.13C101.779 196.126 101.416 196.232 101.106 196.435C100.796 196.638 100.553 196.929 100.408 197.27C100.264 197.612 100.224 197.988 100.294 198.352C100.363 198.716 100.54 199.052 100.801 199.315C101.061 199.579 101.395 199.759 101.758 199.832C102.121 199.906 102.498 199.87 102.841 199.729C103.184 199.589 103.477 199.349 103.683 199.041C103.89 198.733 104 198.371 104 198C103.992 197.514 103.794 197.05 103.448 196.708C103.103 196.366 102.636 196.173 102.15 196.17V196.13ZM110.4 196.13C110.03 196.13 109.669 196.24 109.361 196.445C109.054 196.651 108.814 196.943 108.672 197.284C108.531 197.626 108.494 198.002 108.566 198.365C108.638 198.728 108.816 199.061 109.078 199.322C109.339 199.584 109.672 199.762 110.035 199.834C110.398 199.906 110.774 199.869 111.116 199.728C111.457 199.586 111.749 199.346 111.955 199.039C112.16 198.731 112.27 198.37 112.27 198C112.262 197.51 112.061 197.043 111.711 196.701C111.361 196.358 110.89 196.167 110.4 196.17V196.13Z" fill="white"/>
<path d="M413 360.2H286.08C262.37 360.2 260.85 332.28 280.34 319.14C283.903 316.771 287.847 315.032 292 314C330.59 303.85 384.81 235.62 423 264.17L423.11 264.25C461.15 293 434.56 360.2 413 360.2Z" fill="#263238"/>
<path opacity="0.5" d="M413 360.2H286.08C262.37 360.2 260.85 332.28 280.34 319.14C283.903 316.771 287.847 315.032 292 314C330.59 303.85 384.81 235.62 423 264.17L423.11 264.25C461.15 293 434.56 360.2 413 360.2Z" fill="white"/>
<path opacity="0.2" d="M422.9 264.12C419.7 263.91 415.82 264.81 411.64 268.31C400.79 277.41 417.29 321.22 391.34 339.44C376.86 349.61 314.39 354.09 293.54 341.62C278.15 332.41 277.95 326.62 280.34 319.14C283.903 316.771 287.847 315.032 292 314C330.54 303.8 384.76 235.57 422.9 264.12Z" fill="black"/>
<path d="M324.22 255.86L316.65 250.53L322.31 244.74C322.31 244.74 328.12 247.74 327.57 253.09L324.22 255.86Z" fill="#E4897B"/>
<path d="M313.68 244.65L318.93 241.35L322.31 244.74L316.65 250.53L313.68 244.65Z" fill="#E4897B"/>
<path d="M361.46 242.09C354.29 244.2 350.76 256.81 344.84 268.72L327.61 251.6L322.13 256.46C322.13 256.46 337.91 281.53 345.36 281.53C354.66 281.53 364.31 255.7 364.31 255.7L361.46 242.09Z" fill="#263238"/>
<path opacity="0.1" d="M364.31 255.7C364.31 255.7 362.78 259.79 360.31 264.7C357.96 269.48 354.76 275.05 351.31 278.42C349.36 280.31 347.31 281.51 345.31 281.51C337.86 281.51 322.08 256.44 322.08 256.44L327.56 251.58L344.79 268.7C350.71 256.79 354.23 244.18 361.42 242.07L364.31 255.7Z" fill="white"/>
<path opacity="0.2" d="M360.35 264.72C358 269.5 354.8 275.07 351.35 278.44C351.72 267.01 357.35 255.86 357.35 255.86C358.902 258.597 359.92 261.603 360.35 264.72Z" fill="black"/>
<path d="M354.6 311.75C354.6 311.75 293.75 303.01 290.53 316.36C287.14 330.48 336 340 365.2 341C394.4 342 402.78 335 398.09 299H358.09L354.6 311.75Z" fill="#6EC9A4"/>
<path opacity="0.6" d="M354.6 311.75C354.6 311.75 293.75 303.01 290.53 316.36C287.14 330.48 336 340 365.2 341C394.4 342 402.78 335 398.09 299H358.09L354.6 311.75Z" fill="white"/>
<path d="M320.71 339.59L307.96 339.6L301.84 339.61L301.11 333.16L306.77 332.4L320.6 330.56L320.71 339.59Z" fill="#E4897B"/>
<path d="M302.49 332.35L304.04 339.71C304.062 339.807 304.064 339.907 304.045 340.004C304.027 340.102 303.989 340.195 303.934 340.277C303.879 340.359 303.808 340.429 303.724 340.483C303.641 340.537 303.548 340.573 303.45 340.59L299.78 341.25C299.78 341.25 294.91 342.49 293.54 341.62C289.54 339.06 285.7 322.88 287.33 321.68C287.92 321.24 288.95 321.91 289.47 322.44C291.11 324.11 294.6 328.78 295.99 330.16C297.6 331.78 300.47 331.83 301.73 331.76C301.906 331.752 302.08 331.806 302.219 331.915C302.358 332.023 302.454 332.177 302.49 332.35Z" fill="#263238"/>
<path opacity="0.2" d="M320.71 339.59L307.96 339.6L306.77 332.4L320.6 330.56L320.71 339.59Z" fill="black"/>
<path d="M339.35 328.21L351.45 332.24L357.26 334.17L355.91 340.51L350.3 339.44L336.6 336.82L339.35 328.21Z" fill="#E4897B"/>
<path d="M354.35 340.84L355.2 333.37C355.212 333.272 355.244 333.178 355.293 333.092C355.342 333.006 355.407 332.931 355.485 332.871C355.563 332.81 355.652 332.766 355.748 332.74C355.843 332.714 355.942 332.707 356.04 332.72L359.73 333.26C359.73 333.26 364.73 333.62 365.73 334.88C368.73 338.57 367.25 355.14 365.33 355.76C364.62 355.99 363.86 355.03 363.53 354.37C362.53 352.26 360.67 346.72 359.79 344.98C358.79 342.93 356.06 341.98 354.85 341.64C354.686 341.587 354.545 341.478 354.453 341.332C354.362 341.185 354.325 341.011 354.35 340.84Z" fill="#263238"/>
<path opacity="0.2" d="M339.35 328.21L351.45 332.24L350.3 339.44L336.6 336.82L339.35 328.21Z" fill="black"/>
<path d="M348.2 340.56L344.75 340.89L346.81 328.95L350.77 331.04L348.2 340.56Z" fill="#6EC9A4"/>
<path opacity="0.6" d="M348.2 340.56L344.75 340.89L346.81 328.95L350.77 331.04L348.2 340.56Z" fill="white"/>
<path d="M359.75 344.89C359.84 345.431 359.759 345.987 359.52 346.48C359.423 346.628 359.289 346.747 359.131 346.826C358.973 346.905 358.796 346.941 358.62 346.93C358.513 346.935 358.407 346.911 358.313 346.862C358.218 346.813 358.138 346.74 358.08 346.65C357.56 345.77 358.78 343.06 358.93 342.76C358.939 342.726 358.961 342.697 358.991 342.679C359.02 342.66 359.056 342.654 359.09 342.66C359.128 342.663 359.164 342.679 359.193 342.704C359.222 342.729 359.242 342.763 359.25 342.8C359.487 343.478 359.654 344.178 359.75 344.89ZM358.31 346.19C358.317 346.278 358.344 346.364 358.39 346.44C358.409 346.478 358.439 346.51 358.477 346.529C358.515 346.549 358.558 346.556 358.6 346.55C358.721 346.564 358.844 346.544 358.954 346.491C359.064 346.437 359.156 346.354 359.22 346.25C359.511 345.299 359.458 344.276 359.07 343.36C358.649 344.25 358.391 345.209 358.31 346.19Z" fill="#6EC9A4"/>
<path d="M359.28 342.82V342.9C358.95 343.77 357.45 345.49 356.6 345.37C356.461 345.346 356.334 345.275 356.24 345.17C356.145 345.065 356.089 344.931 356.08 344.79C356.042 344.65 356.034 344.503 356.058 344.36C356.083 344.216 356.138 344.08 356.22 343.96C356.84 342.96 358.99 342.64 359.11 342.65C359.143 342.644 359.178 342.648 359.208 342.662C359.239 342.677 359.264 342.7 359.28 342.73C359.288 342.76 359.288 342.791 359.28 342.82ZM356.4 344.65V344.73C356.46 344.98 356.56 344.99 356.61 345.01C357.11 345.08 358.26 343.96 358.76 343.1C357.907 343.204 357.112 343.587 356.5 344.19C356.415 344.327 356.376 344.489 356.39 344.65H356.4Z" fill="#6EC9A4"/>
<path d="M309.12 331.47C309.12 331.47 365.73 309.47 383.07 313.15C400.41 316.83 400.49 325.9 391.7 334.36C382.91 342.82 369.78 339.56 369.78 339.56C369.78 339.56 380.1 333.38 379.38 329.56C378.66 325.74 372.1 334.47 372.1 334.47C372.1 334.47 337.89 342.84 309.64 340.63L309.12 331.47Z" fill="#6EC9A4"/>
<path d="M296.38 330.28C296.051 329.844 295.869 329.316 295.86 328.77C295.876 328.594 295.938 328.426 296.04 328.282C296.141 328.138 296.28 328.023 296.44 327.95C296.533 327.898 296.638 327.871 296.745 327.871C296.852 327.871 296.957 327.898 297.05 327.95C297.91 328.5 298.05 331.47 298.05 331.81C298.054 331.844 298.047 331.879 298.028 331.908C298.01 331.937 297.982 331.959 297.95 331.97C297.919 331.991 297.882 332.002 297.845 332.002C297.808 332.002 297.771 331.991 297.74 331.97C297.229 331.456 296.773 330.889 296.38 330.28ZM297.06 328.46C297.009 328.388 296.945 328.327 296.87 328.28C296.836 328.256 296.796 328.244 296.755 328.244C296.714 328.244 296.674 328.256 296.64 328.28C296.525 328.322 296.424 328.396 296.349 328.493C296.275 328.591 296.23 328.708 296.22 328.83C296.399 329.808 296.92 330.691 297.69 331.32C297.651 330.337 297.438 329.369 297.06 328.46Z" fill="#6EC9A4"/>
<path d="M297.74 331.9V331.81C297.64 330.89 298.17 328.67 298.99 328.38C299.125 328.338 299.271 328.342 299.404 328.393C299.536 328.444 299.648 328.538 299.72 328.66C299.908 328.882 300.002 329.17 299.98 329.46C299.88 330.63 298.12 331.9 297.98 331.96C297.952 331.979 297.919 331.989 297.885 331.989C297.851 331.989 297.818 331.979 297.79 331.96C297.769 331.944 297.751 331.924 297.74 331.9ZM299.46 328.95V328.88C299.3 328.69 299.2 328.73 299.15 328.74C298.67 328.9 298.15 330.42 298.15 331.42C298.64 331.01 299.59 330.15 299.65 329.42C299.66 329.258 299.618 329.097 299.53 328.96L299.46 328.95Z" fill="#6EC9A4"/>
<path opacity="0.7" d="M309.12 331.47C309.12 331.47 365.73 309.47 383.07 313.15C400.41 316.83 400.49 325.9 391.7 334.36C382.91 342.82 369.78 339.56 369.78 339.56C369.78 339.56 380.1 333.38 379.38 329.56C378.66 325.74 372.1 334.47 372.1 334.47C372.1 334.47 337.89 342.84 309.64 340.63L309.12 331.47Z" fill="white"/>
<path d="M308.43 331.3L311.61 329.84L313.44 341.75L309.02 341.03L308.43 331.3Z" fill="#6EC9A4"/>
<path opacity="0.6" d="M308.43 331.3L311.61 329.84L313.44 341.75L309.02 341.03L308.43 331.3Z" fill="white"/>
<path d="M402.11 244C396 278 398.22 300 398.22 300C398.22 300 369.79 299.61 358.11 298.95C351.88 257.74 361.46 242.08 361.46 242.08C364.514 241.468 367.604 241.044 370.71 240.81C371.36 240.76 372.03 240.73 372.71 240.7C378.22 240.696 383.725 241.007 389.2 241.63C390.2 241.74 391.29 241.88 392.31 242.03C397.52 242.82 402.11 244 402.11 244Z" fill="#263238"/>
<path opacity="0.1" d="M402.11 244C401.35 248.22 400.72 252.26 400.2 256.08C399.38 262.08 398.83 267.64 398.47 272.58C398.36 274.07 398.26 275.52 398.19 276.9C397.9 281.96 397.82 286.29 397.83 289.79C397.83 296.37 398.22 300 398.22 300C398.22 300 369.79 299.61 358.11 298.95C351.87 257.74 361.47 242.08 361.47 242.08C364.521 241.468 367.607 241.043 370.71 240.81C371.36 240.76 372.03 240.73 372.71 240.7C378.22 240.691 383.726 241.002 389.2 241.63C390.2 241.74 391.29 241.88 392.31 242.03C397.52 242.81 402.11 244 402.11 244Z" fill="white"/>
<path opacity="0.2" d="M376.72 281.53C384.005 280.665 391.194 279.118 398.19 276.91C397.9 281.97 397.82 286.3 397.83 289.8C384.26 291.05 378.72 288.44 378.72 288.44L376.72 281.53Z" fill="black"/>
<path opacity="0.2" d="M400.2 256.09C399.38 262.09 398.83 267.65 398.47 272.59C394.58 264.67 397.47 255.17 397.47 255.17L400.2 256.09Z" fill="black"/>
<path d="M378.26 295.49H357.58C357.178 295.484 356.793 295.327 356.501 295.051C356.209 294.776 356.03 294.401 356 294L353.12 266.55C353.1 266.366 353.12 266.179 353.177 266.003C353.235 265.827 353.329 265.665 353.454 265.528C353.579 265.391 353.731 265.282 353.901 265.208C354.071 265.134 354.255 265.097 354.44 265.1H375.12C375.514 265.108 375.891 265.26 376.18 265.527C376.47 265.794 376.651 266.158 376.69 266.55L379.58 294C379.606 294.187 379.591 294.378 379.537 294.559C379.482 294.74 379.388 294.907 379.263 295.049C379.138 295.19 378.983 295.303 378.81 295.379C378.637 295.455 378.449 295.493 378.26 295.49Z" fill="#263238"/>
<path opacity="0.6" d="M378.26 295.49H357.58C357.178 295.484 356.793 295.327 356.501 295.051C356.209 294.776 356.03 294.401 356 294L353.12 266.55C353.1 266.366 353.12 266.179 353.177 266.003C353.235 265.827 353.329 265.665 353.454 265.528C353.579 265.391 353.731 265.282 353.901 265.208C354.071 265.134 354.255 265.097 354.44 265.1H375.12C375.514 265.108 375.891 265.26 376.18 265.527C376.47 265.794 376.651 266.158 376.69 266.55L379.58 294C379.606 294.187 379.591 294.378 379.537 294.559C379.482 294.74 379.388 294.907 379.263 295.049C379.138 295.19 378.983 295.303 378.81 295.379C378.637 295.455 378.449 295.493 378.26 295.49Z" fill="white"/>
<path opacity="0.2" d="M377.4 295.49H357.58C357.178 295.484 356.793 295.327 356.501 295.051C356.209 294.776 356.03 294.401 356 294L353.12 266.55C353.1 266.366 353.12 266.179 353.177 266.003C353.235 265.827 353.329 265.665 353.454 265.528C353.579 265.391 353.731 265.282 353.901 265.208C354.071 265.134 354.255 265.097 354.44 265.1H374.26C374.654 265.108 375.031 265.26 375.32 265.527C375.61 265.794 375.791 266.158 375.83 266.55L378.72 294C378.746 294.187 378.731 294.378 378.676 294.559C378.622 294.74 378.529 294.907 378.403 295.049C378.278 295.19 378.123 295.303 377.95 295.379C377.777 295.455 377.589 295.493 377.4 295.49Z" fill="white"/>
<path d="M365.34 278.07C365.055 278.068 364.773 278.127 364.512 278.242C364.252 278.358 364.019 278.528 363.83 278.741C363.64 278.954 363.498 279.205 363.414 279.478C363.33 279.75 363.304 280.037 363.34 280.32C363.399 280.927 363.679 281.491 364.128 281.904C364.576 282.317 365.16 282.551 365.77 282.56C366.054 282.562 366.335 282.504 366.595 282.388C366.855 282.273 367.087 282.104 367.276 281.892C367.466 281.68 367.608 281.43 367.693 281.159C367.778 280.888 367.804 280.602 367.77 280.32C367.16 280.308 366.575 280.072 366.127 279.658C365.679 279.243 365.399 278.678 365.34 278.07Z" fill="#263238"/>
<path opacity="0.3" d="M369.82 267.32H358.89C358.621 267.316 358.359 267.238 358.133 267.093C357.907 266.948 357.726 266.743 357.61 266.5L356.96 265.14H371.38L371 266.5C370.926 266.75 370.768 266.968 370.554 267.117C370.339 267.266 370.081 267.338 369.82 267.32Z" fill="black"/>
<path d="M376.24 280.65L371.46 280.26L371.66 286.62L375.66 288.72L384.88 287.88L385.63 283.59C382.6 279.15 376.24 280.65 376.24 280.65Z" fill="#E4897B"/>
<path d="M402.11 244C407.02 245.48 413.98 274 412.87 280.3C411.76 286.6 399.65 289.3 384.26 288.95V281.51L402.11 276.3L399.11 265.3C399.11 265.3 396.63 257.21 397.74 251.55C398.349 248.63 399.881 245.983 402.11 244Z" fill="#263238"/>
<path opacity="0.1" d="M402.11 244C407.02 245.48 413.98 274 412.87 280.3C411.76 286.6 399.65 289.3 384.26 288.95V281.51L402.11 276.3L399.11 265.3C399.11 265.3 396.63 257.21 397.74 251.55C398.349 248.63 399.881 245.983 402.11 244Z" fill="white"/>
<path d="M386.82 241.31C384.33 243.91 380.42 246.09 374.15 245.86C369.34 245.67 368.67 242.65 369.51 240.99C372.43 240.39 373.75 239.12 374.16 237.5C374.57 235.88 374 233.7 373.16 231.68L381.27 224.85L382.64 223.69C382.64 224.08 382.59 224.49 382.57 224.92C382.476 226.505 382.476 228.095 382.57 229.68C382.84 234.15 383.9 239 386.82 241.31Z" fill="#E4897B"/>
<path opacity="0.2" d="M382.58 229.68C381.07 232.77 378.42 236.5 374.16 237.5C374.6 235.78 374 233.7 373.16 231.68L381.27 224.85C381.7 224.85 382.14 224.85 382.57 224.92C382.479 226.506 382.482 228.095 382.58 229.68Z" fill="black"/>
<path d="M364 211.27C362.81 213.99 362.66 219.83 366.8 218.38C370.94 216.93 366 206.6 364 211.27Z" fill="#263238"/>
<path d="M383.83 217.3C383.47 224.58 383.64 228.87 380 232.62C374.52 238.26 365.48 234.94 363.64 227.68C362 221.13 362.86 210.32 369.96 207.4C371.535 206.755 373.248 206.52 374.938 206.716C376.629 206.912 378.242 207.534 379.627 208.522C381.012 209.511 382.124 210.835 382.859 212.37C383.594 213.905 383.928 215.601 383.83 217.3Z" fill="#E4897B"/>
<path d="M372.79 219.36C372.79 219.95 372.49 220.44 372.1 220.44C371.71 220.44 371.39 219.96 371.38 219.36C371.37 218.76 371.69 218.29 372.07 218.29C372.45 218.29 372.78 218.77 372.79 219.36Z" fill="#263238"/>
<path d="M366.07 219.38C366.07 219.97 365.77 220.45 365.38 220.45C364.99 220.45 364.67 219.97 364.67 219.38C364.67 218.79 364.97 218.31 365.36 218.31C365.75 218.31 366.07 218.78 366.07 219.38Z" fill="#263238"/>
<path d="M368.21 219.67C367.503 221.427 366.554 223.076 365.39 224.57C365.803 224.841 366.268 225.023 366.755 225.104C367.243 225.185 367.742 225.163 368.22 225.04L368.21 219.67Z" fill="#DE5753"/>
<path d="M374.83 217.19C374.77 217.199 374.709 217.192 374.652 217.169C374.596 217.146 374.547 217.108 374.51 217.06C374.251 216.705 373.913 216.415 373.523 216.213C373.132 216.012 372.7 215.905 372.26 215.9C372.168 215.906 372.077 215.876 372.006 215.816C371.935 215.756 371.89 215.672 371.88 215.58C371.876 215.534 371.881 215.488 371.895 215.444C371.909 215.4 371.931 215.359 371.961 215.323C371.991 215.288 372.027 215.259 372.068 215.238C372.109 215.217 372.154 215.204 372.2 215.2C372.756 215.196 373.304 215.324 373.801 215.573C374.298 215.821 374.73 216.183 375.06 216.63C375.117 216.703 375.142 216.796 375.131 216.887C375.12 216.979 375.073 217.063 375 217.12C374.95 217.158 374.892 217.182 374.83 217.19Z" fill="#263238"/>
<path d="M363.15 217.08C363.085 217.099 363.015 217.099 362.95 217.08C362.909 217.06 362.872 217.031 362.841 216.997C362.81 216.962 362.787 216.922 362.772 216.878C362.757 216.835 362.751 216.788 362.754 216.742C362.757 216.696 362.77 216.651 362.79 216.61C363.012 216.101 363.353 215.654 363.785 215.306C364.216 214.957 364.726 214.719 365.27 214.61C365.316 214.604 365.363 214.608 365.407 214.621C365.452 214.633 365.494 214.655 365.53 214.683C365.566 214.712 365.596 214.748 365.619 214.789C365.641 214.829 365.655 214.874 365.66 214.92C365.667 214.965 365.665 215.01 365.654 215.054C365.644 215.098 365.624 215.14 365.597 215.176C365.57 215.212 365.536 215.243 365.497 215.266C365.458 215.289 365.415 215.304 365.37 215.31C364.941 215.391 364.538 215.576 364.198 215.85C363.858 216.124 363.591 216.478 363.42 216.88C363.394 216.932 363.356 216.978 363.309 217.012C363.262 217.047 363.208 217.07 363.15 217.08Z" fill="#263238"/>
<path d="M372.39 211.46C372.39 211.46 374.39 210.02 375.31 211.57C376.23 213.12 376.17 217.25 376.17 217.25L376.57 216.52C376.57 216.52 379.16 225.72 382.91 223.4C386.66 221.08 392.17 211.74 383.41 206.98C383.41 206.98 382.48 204.76 376.69 203.66C370.9 202.56 363.9 206.14 362.69 209.97C361.48 213.8 363.17 215.97 363.17 215.97C363.356 215.136 363.736 214.358 364.28 213.7C364.358 214.09 364.531 214.455 364.784 214.762C365.037 215.069 365.362 215.309 365.73 215.46C365.671 214.677 365.834 213.894 366.2 213.2C366.391 213.881 366.733 214.509 367.2 215.04C367.62 211.1 370.3 210.3 371.14 210.33C371.441 210.363 371.723 210.49 371.948 210.693C372.172 210.896 372.327 211.164 372.39 211.46Z" fill="#263238"/>
<path d="M386.72 223.33C386.452 224.196 386.016 225.001 385.436 225.698C384.856 226.395 384.143 226.97 383.34 227.39C381.18 228.5 379.6 226.67 379.78 224.39C379.94 222.32 381.25 219.25 383.62 219.1C384.138 219.077 384.655 219.182 385.123 219.406C385.591 219.63 385.996 219.966 386.303 220.385C386.61 220.803 386.808 221.291 386.881 221.805C386.954 222.319 386.898 222.843 386.72 223.33Z" fill="#E4897B"/>
<path d="M368.45 227.48C369.074 228.133 369.649 228.832 370.17 229.57L370.6 229.36C372.53 228.36 373.11 227.29 373.16 226.36C373.173 225.911 373.08 225.466 372.89 225.06C372.788 224.828 372.654 224.613 372.49 224.42C371.569 225.555 370.412 226.476 369.1 227.12C368.71 227.36 368.45 227.48 368.45 227.48Z" fill="#263238"/>
<path d="M369.1 227.14L369.63 227.74C371.44 226.82 372.63 225.92 372.89 225.08C372.788 224.848 372.654 224.633 372.49 224.44C371.569 225.575 370.412 226.496 369.1 227.14Z" fill="white"/>
<path d="M370.6 229.36C372.53 228.36 373.11 227.29 373.16 226.36C372.433 226.746 371.78 227.257 371.23 227.87C370.868 228.288 370.647 228.809 370.6 229.36Z" fill="#A24E3F"/>
<path d="M194.41 251.18L194.93 256.73C194.93 256.73 227.41 261.67 232.61 266.73C237.81 271.79 256.26 351.82 256.26 351.82L248.82 352.82C248.82 352.82 223 293.82 221.62 285.28C221.62 285.28 198.88 286.13 183.36 286.13C167.84 286.13 165.99 251.13 165.99 251.13L194.41 251.18Z" fill="#6EC9A4"/>
<path opacity="0.3" d="M256.26 351.83L248.82 352.83C248.82 352.83 238.26 328.7 230.29 309.07C225.78 298 222.11 288.36 221.62 285.28C221.62 285.28 205.88 285.86 191.62 286.06C188.74 286.06 185.93 286.12 183.32 286.12C167.8 286.12 165.95 251.12 165.95 251.12H194.37L194.89 256.67C194.89 256.67 227.38 261.6 232.57 266.67C237.76 271.74 256.26 351.83 256.26 351.83Z" fill="white"/>
<path d="M262 359C257 359 256.33 358.92 253.51 358.82C251.1 358.74 250.51 359.04 248.59 359C246.97 359 247.03 357.41 247.53 355.63C247.78 354.73 248.16 352.84 248.53 351.4L255.87 350.86C256.87 352.86 259.23 355.65 262.05 356.03C264.87 356.41 264 359 262 359Z" fill="#263238"/>
<path opacity="0.2" d="M230.29 309.11C225.78 298.04 222.11 288.4 221.62 285.32C221.62 285.32 205.88 285.9 191.62 286.1L190.08 258.91C190.08 258.91 210.16 261.79 223.66 273.42C225.37 274.86 228.7 297.13 230.29 309.11Z" fill="black"/>
<path d="M223.29 291.33H165.18V287.76C165.18 286.569 165.653 285.427 166.495 284.585C167.337 283.743 168.479 283.27 169.67 283.27H218.8C219.991 283.27 221.133 283.743 221.975 284.585C222.817 285.427 223.29 286.569 223.29 287.76V291.33Z" fill="#263238"/>
<path opacity="0.2" d="M223.29 291.33H165.18V287.76C165.18 286.569 165.653 285.427 166.495 284.585C167.337 283.743 168.479 283.27 169.67 283.27H218.8C219.991 283.27 221.133 283.743 221.975 284.585C222.817 285.427 223.29 286.569 223.29 287.76V291.33Z" fill="white"/>
<path d="M221.27 343.58L198.87 341.63V312.21H191V341.62L168.52 343.62C167.564 343.714 166.678 344.161 166.033 344.872C165.388 345.584 165.03 346.51 165.03 347.47V350.47H224.77V347.47C224.779 346.501 224.425 345.564 223.777 344.844C223.129 344.124 222.234 343.673 221.27 343.58Z" fill="#263238"/>
<path d="M172.27 354.12C172.27 355.139 171.968 356.134 171.402 356.981C170.836 357.828 170.032 358.488 169.091 358.878C168.15 359.268 167.114 359.37 166.115 359.171C165.116 358.972 164.199 358.482 163.478 357.762C162.758 357.041 162.268 356.124 162.069 355.125C161.87 354.126 161.972 353.09 162.362 352.149C162.752 351.208 163.412 350.404 164.259 349.838C165.106 349.272 166.101 348.97 167.12 348.97C168.486 348.97 169.796 349.513 170.762 350.478C171.727 351.444 172.27 352.754 172.27 354.12Z" fill="#263238"/>
<path d="M222.66 359.27C225.504 359.27 227.81 356.964 227.81 354.12C227.81 351.276 225.504 348.97 222.66 348.97C219.816 348.97 217.51 351.276 217.51 354.12C217.51 356.964 219.816 359.27 222.66 359.27Z" fill="#263238"/>
<path d="M189.64 289.41H200.23V314.5C200.23 315.484 199.839 316.428 199.143 317.124C198.448 317.819 197.504 318.21 196.52 318.21H193.36C192.376 318.21 191.432 317.819 190.737 317.124C190.041 316.428 189.65 315.484 189.65 314.5V289.41H189.64Z" fill="#263238"/>
<path opacity="0.2" d="M189.64 289.41H200.23V314.5C200.23 315.484 199.839 316.428 199.143 317.124C198.448 317.819 197.504 318.21 196.52 318.21H193.36C192.376 318.21 191.432 317.819 190.737 317.124C190.041 316.428 189.65 315.484 189.65 314.5V289.41H189.64Z" fill="white"/>
<path d="M164.77 292.26H223.69C224.69 292.26 225.5 291.45 225.5 290.45V290.04C225.5 289.04 224.69 288.23 223.69 288.23H164.77C163.77 288.23 162.96 289.04 162.96 290.04V290.45C162.96 291.45 163.77 292.26 164.77 292.26Z" fill="#263238"/>
<path opacity="0.2" d="M172.27 354.12C172.27 355.139 171.968 356.134 171.402 356.981C170.836 357.828 170.032 358.488 169.091 358.878C168.15 359.268 167.114 359.37 166.115 359.171C165.116 358.972 164.199 358.482 163.478 357.762C162.758 357.041 162.268 356.124 162.069 355.125C161.87 354.126 161.972 353.09 162.362 352.149C162.752 351.208 163.412 350.404 164.259 349.838C165.106 349.272 166.101 348.97 167.12 348.97C168.486 348.97 169.796 349.513 170.762 350.478C171.727 351.444 172.27 352.754 172.27 354.12Z" fill="white"/>
<path opacity="0.2" d="M222.66 359.27C225.504 359.27 227.81 356.964 227.81 354.12C227.81 351.276 225.504 348.97 222.66 348.97C219.816 348.97 217.51 351.276 217.51 354.12C217.51 356.964 219.816 359.27 222.66 359.27Z" fill="white"/>
<path d="M228.23 241.86H210.28C205.02 241.86 201.22 237.13 201.8 231.31L202.56 223.53C203.14 217.7 207.86 212.97 213.12 212.97H231.07C236.33 212.97 240.13 217.7 239.56 223.53L238.79 231.31C238.22 237.13 233.49 241.86 228.23 241.86Z" fill="#263238"/>
<path opacity="0.2" d="M228.23 241.86H210.28C205.02 241.86 201.22 237.13 201.8 231.31L202.56 223.53C203.14 217.7 207.86 212.97 213.12 212.97H231.07C236.33 212.97 240.13 217.7 239.56 223.53L238.79 231.31C238.22 237.13 233.49 241.86 228.23 241.86Z" fill="white"/>
<path d="M226.58 238.07H216C212.89 238.07 210.64 235.28 211 231.83L211.46 227.24C211.79 223.79 214.59 221 217.7 221H228.3C231.41 221 233.66 223.79 233.3 227.24L232.84 231.83C232.48 235.28 229.69 238.07 226.58 238.07Z" fill="#263238"/>
<path d="M218.16 231.21C218.16 231.21 215.74 279.86 205.26 288.21H216.47C216.47 288.21 226.47 271.64 227.2 231.21H218.16Z" fill="#263238"/>
<path d="M227.18 210.94L229.11 209.94C229.472 209.755 229.873 209.658 230.28 209.658C230.687 209.658 231.088 209.755 231.45 209.94L234.91 211.64C235.591 211.975 236.182 212.469 236.633 213.079C237.083 213.69 237.381 214.4 237.5 215.15L237.66 216.1C234.57 218.04 229.81 217.86 229.81 217.86L228.44 217.97C228.161 217.999 227.878 217.972 227.609 217.891C227.34 217.81 227.09 217.676 226.873 217.497C226.657 217.319 226.477 217.099 226.346 216.85C226.215 216.602 226.135 216.33 226.11 216.05L225.87 213.35C225.824 212.864 225.925 212.375 226.158 211.945C226.391 211.516 226.747 211.166 227.18 210.94Z" fill="#B97964"/>
<path opacity="0.2" d="M227.18 210.94L229.11 209.94C229.472 209.755 229.873 209.658 230.28 209.658C230.687 209.658 231.088 209.755 231.45 209.94L234.91 211.64C235.591 211.975 236.182 212.469 236.633 213.079C237.083 213.69 237.381 214.4 237.5 215.15L237.66 216.1C234.57 218.04 229.81 217.86 229.81 217.86L228.44 217.97C228.161 217.999 227.878 217.972 227.609 217.891C227.34 217.81 227.09 217.676 226.873 217.497C226.657 217.319 226.477 217.099 226.346 216.85C226.215 216.602 226.135 216.33 226.11 216.05L225.87 213.35C225.824 212.864 225.925 212.375 226.158 211.945C226.391 211.516 226.747 211.166 227.18 210.94Z" fill="black"/>
<path d="M213 213.32L206 222.17H199.34L200.21 209.82C205.25 210.79 213 213.32 213 213.32Z" fill="#6EC9A4"/>
<path opacity="0.2" d="M205.41 222.17H199.65L203.23 213.32C203.23 213.32 205.28 216.43 205.41 222.17Z" fill="black"/>
<path d="M194.84 254.52L165.53 251.8C166.45 248.68 167.26 245.62 167.94 242.67C168.8 239.06 169.48 235.6 170.02 232.37C170.56 229.14 171.02 226.14 171.34 223.42L171.43 222.65C171.43 222.22 171.53 221.8 171.57 221.4C171.86 218.77 172.04 216.48 172.16 214.59C172.41 210.9 172.41 208.77 172.41 208.77C182.452 206.847 192.816 207.462 202.56 210.56C206.92 222.84 194.84 254.52 194.84 254.52Z" fill="#6EC9A4"/>
<path d="M194.74 212.52C194.295 213.442 193.614 214.231 192.767 214.806C191.919 215.381 190.935 215.723 189.913 215.796C188.892 215.869 187.869 215.671 186.948 215.222C186.028 214.774 185.242 214.09 184.67 213.24L183.4 211.35L181.84 209C184.46 207.45 185.49 202.49 185.84 198.23C185.95 196.89 185.99 195.63 185.99 194.56L192.57 203.56C192.11 204.513 191.774 205.521 191.57 206.56C191.487 206.988 191.453 207.424 191.47 207.86C191.48 209.61 192.35 211.23 194.74 212.52Z" fill="#B97964"/>
<path opacity="0.2" d="M192.55 203.61C192.09 204.563 191.754 205.571 191.55 206.61C189.82 208.83 187.13 211.18 183.42 211.33L181.84 209C184.46 207.45 185.49 202.49 185.84 198.23C185.95 196.89 185.99 195.63 185.99 194.56L192.55 203.61Z" fill="black"/>
<path d="M176.74 188.58C176.74 188.58 173.49 187.36 174.45 185.11C175.41 182.86 176.57 182.88 176.57 182.88C176.079 181.96 175.812 180.937 175.791 179.894C175.77 178.852 175.996 177.819 176.45 176.88C178.06 173.88 181.62 175.1 181.62 175.1C181.634 174.158 181.969 173.248 182.568 172.521C183.168 171.794 183.997 171.293 184.92 171.1C185.862 170.944 186.828 171.1 187.673 171.544C188.518 171.988 189.194 172.696 189.6 173.56C189.6 173.56 191.84 170.65 195.12 171.45C198.4 172.25 199.06 176.82 199.06 176.82C199.956 176.528 200.93 176.593 201.779 177C202.629 177.408 203.288 178.128 203.62 179.01C204.066 179.93 204.252 180.955 204.159 181.974C204.066 182.992 203.696 183.966 203.09 184.79C203.09 184.79 205.18 183.79 205.87 187.16C206.56 190.53 203.04 193.49 203.04 193.49C203.04 193.49 204.94 193.72 203.96 196.21C202.98 198.7 199.89 198.74 199.89 198.74C199.89 198.74 201.09 199.35 198.82 201.4C196.55 203.45 189.24 200.52 189.24 200.52L176.74 188.58Z" fill="#263238"/>
<path d="M185.68 183.24C178.68 183.6 176.68 187.46 176.51 194.69C176.34 203.69 178.67 210 187.3 207.62C199 204.39 197.28 182.63 185.68 183.24Z" fill="#B97964"/>
<path d="M181 194.06C180.496 195.132 179.865 196.139 179.12 197.06C179.341 197.339 179.634 197.551 179.967 197.675C180.3 197.798 180.661 197.828 181.01 197.76L181 194.06Z" fill="#A24E3F"/>
<path d="M185.25 193.26C185.25 193.84 185.59 194.26 185.97 194.26C186.35 194.26 186.65 193.78 186.64 193.2C186.63 192.62 186.3 192.2 185.91 192.2C185.52 192.2 185.23 192.69 185.25 193.26Z" fill="#263238"/>
<path d="M186.07 192.23L184.81 191.77C184.81 191.77 185.46 192.81 186.07 192.23Z" fill="#263238"/>
<path d="M178.1 193.35C178.1 193.93 178.44 194.35 178.83 194.35C179.22 194.35 179.51 193.87 179.49 193.29C179.47 192.71 179.15 192.29 178.77 192.29C178.39 192.29 178.09 192.78 178.1 193.35Z" fill="#263238"/>
<path d="M178.93 192.31L177.66 191.86C177.66 191.86 178.32 192.89 178.93 192.31Z" fill="#263238"/>
<path d="M188.15 189.63C188.108 189.631 188.067 189.622 188.029 189.605C187.991 189.588 187.957 189.562 187.93 189.53C187.552 189.193 187.104 188.946 186.617 188.808C186.13 188.669 185.618 188.642 185.12 188.73C185.081 188.737 185.042 188.737 185.003 188.729C184.964 188.72 184.928 188.705 184.895 188.682C184.863 188.66 184.835 188.632 184.814 188.599C184.792 188.566 184.777 188.529 184.77 188.49C184.758 188.413 184.777 188.335 184.822 188.272C184.866 188.208 184.934 188.165 185.01 188.15C185.609 188.04 186.226 188.074 186.81 188.248C187.394 188.421 187.928 188.731 188.37 189.15C188.425 189.206 188.456 189.281 188.456 189.36C188.456 189.439 188.425 189.514 188.37 189.57C188.307 189.617 188.228 189.639 188.15 189.63Z" fill="#263238"/>
<path d="M177.22 189.42C177.175 189.42 177.13 189.41 177.088 189.391C177.047 189.372 177.01 189.344 176.98 189.31C176.932 189.246 176.912 189.166 176.923 189.088C176.934 189.009 176.976 188.938 177.04 188.89C177.451 188.545 177.933 188.297 178.452 188.164C178.972 188.031 179.514 188.016 180.04 188.12C180.078 188.132 180.114 188.15 180.145 188.176C180.176 188.201 180.201 188.233 180.22 188.268C180.239 188.303 180.25 188.342 180.254 188.382C180.257 188.422 180.252 188.462 180.24 188.5C180.215 188.573 180.162 188.634 180.093 188.67C180.024 188.705 179.944 188.712 179.87 188.69C179.431 188.611 178.979 188.631 178.548 188.749C178.117 188.866 177.718 189.079 177.38 189.37C177.332 189.401 177.277 189.418 177.22 189.42Z" fill="#263238"/>
<path d="M193.93 194.61C193.93 194.61 190.36 189.04 190.63 184.61C190.63 184.61 176.49 179.68 176.54 193.76C176.54 193.76 174.54 181.36 186.54 180.45C198.54 179.54 199.4 197.11 193.47 202.67C193.46 202.65 196.14 198.09 193.93 194.61Z" fill="#263238"/>
<path d="M192.87 196.15C192.879 195.746 192.968 195.348 193.131 194.978C193.295 194.608 193.529 194.275 193.822 193.996C194.115 193.717 194.459 193.499 194.837 193.354C195.214 193.209 195.616 193.139 196.02 193.15C198.2 193.28 199.46 197.67 194.13 199.02C193.37 199.23 192.89 198.5 192.87 196.15Z" fill="#B97964"/>
<path d="M182.69 201.83C182.49 201.844 182.29 201.844 182.09 201.83C182.051 201.823 182.014 201.808 181.981 201.787C181.948 201.765 181.92 201.737 181.897 201.705C181.875 201.672 181.86 201.636 181.851 201.597C181.843 201.559 181.843 201.519 181.85 201.48C181.856 201.442 181.87 201.405 181.89 201.372C181.911 201.339 181.938 201.311 181.969 201.288C182.001 201.266 182.037 201.25 182.075 201.242C182.113 201.234 182.152 201.233 182.19 201.24C182.943 201.373 183.719 201.247 184.392 200.884C185.065 200.521 185.597 199.942 185.9 199.24C185.914 199.203 185.936 199.17 185.963 199.141C185.991 199.113 186.024 199.09 186.06 199.074C186.096 199.059 186.135 199.05 186.174 199.049C186.214 199.049 186.253 199.056 186.29 199.07C186.327 199.085 186.36 199.106 186.389 199.134C186.417 199.161 186.44 199.194 186.456 199.23C186.472 199.266 186.48 199.305 186.481 199.345C186.482 199.384 186.474 199.423 186.46 199.46C186.153 200.196 185.626 200.819 184.951 201.244C184.276 201.668 183.486 201.873 182.69 201.83Z" fill="#263238"/>
<path d="M196.5 192.06C194.83 183.39 182.01 176.11 177.2 186.19C178.006 183.664 179.566 181.445 181.67 179.83C181.67 179.83 194.67 176.12 196.96 190.93L196.5 192.06Z" fill="#6EC9A4"/>
<path d="M189.67 359C184.67 359 184 358.92 181.18 358.82C178.77 358.74 178.18 359.04 176.26 359C174.64 359 174.7 357.41 175.2 355.63C175.45 354.73 175.83 352.84 176.2 351.4L183.54 350.86C184.54 352.86 186.9 355.65 189.72 356.03C192.54 356.41 191.66 359 189.67 359Z" fill="#263238"/>
<path d="M166 251.18C166 251.18 156 266.05 161.42 278.27C166.84 290.49 194.25 284.97 194.25 284.97L176.19 351.43L184.83 352.86C184.83 352.86 215.46 286.99 216.24 275.76C217.02 264.53 183.95 257.32 183.95 257.32L166 251.18Z" fill="#6EC9A4"/>
<path opacity="0.3" d="M166 251.18C166 251.18 156 266.05 161.42 278.27C166.84 290.49 194.25 284.97 194.25 284.97L176.19 351.43L184.83 352.86C184.83 352.86 215.46 286.99 216.24 275.76C217.02 264.53 183.95 257.32 183.95 257.32L166 251.18Z" fill="white"/>
<path opacity="0.2" d="M196.5 217C196.5 217 182.5 226.86 171.43 222.62C171.43 222.19 171.53 221.77 171.57 221.37C171.86 218.74 172.04 216.45 172.16 214.56C175.748 212.921 179.472 211.599 183.29 210.61C187.22 213.604 191.713 215.777 196.5 217Z" fill="black"/>
<path d="M177 208.79C183.16 211.79 189.52 215.52 196.23 216.89C200.09 216.64 204.41 215.07 208.29 214.01L219.92 210.49C220.418 210.333 220.957 210.368 221.431 210.587C221.905 210.806 222.281 211.194 222.484 211.675C222.688 212.155 222.705 212.695 222.532 213.188C222.36 213.681 222.009 214.092 221.55 214.34C217.92 216.34 214.26 218.18 210.47 219.86C205.79 221.78 201.47 224.02 196.19 224.5C194.295 224.478 192.412 224.202 190.59 223.68C184.442 221.877 178.523 219.37 172.95 216.21C172.063 215.63 171.426 214.738 171.166 213.711C170.905 212.684 171.04 211.596 171.542 210.663C172.045 209.73 172.88 209.02 173.881 208.673C174.883 208.327 175.978 208.368 176.95 208.79H177Z" fill="#B97864"/>
<path d="M173.69 207.68C168.3 208.96 168.12 218.21 173.07 222.55L185.07 212.42C185.07 212.42 180.08 206.16 173.69 207.68Z" fill="#6EC9A4"/>
<path d="M220.23 210.54L226.88 210.38L223.88 217.11C223.88 217.11 217.88 216.9 218.17 213.84L220.23 210.54Z" fill="#B97964"/>
<path d="M232.59 213.67L228.03 218.58L223.86 217.11L226.88 210.38L232.59 213.67Z" fill="#B97964"/>
<path d="M321.88 291.51C326.53 301.13 331.01 310.75 334.04 321.05C335.43 328.05 335.69 335.17 336.21 342.12C336.57 347.87 336.78 353.61 336.86 359.38L331.71 359.92C330.08 351.81 328.55 342.76 327.13 334.58C326.45 330.88 325.93 327.24 325 323.68C321.46 314.51 316.55 305.07 312.48 296.05L321.88 291.51Z" fill="#DC897C"/>
<path d="M329.56 304.1L321.41 308L316.35 310.45L313.28 303.07L310.07 295.34L312.78 281.25C321.1 284.89 329.56 304.1 329.56 304.1Z" fill="#6EC9A4"/>
<path opacity="0.2" d="M321.41 308L316.35 310.45L313.28 303.07C313.91 298.89 314.44 295.34 314.44 295.34C314.44 295.34 320.36 300.65 321.41 308Z" fill="black"/>
<path d="M297 255.7C297.09 256.3 297.48 256.7 297.87 256.7C298.26 256.7 298.5 256.11 298.41 255.51C298.32 254.91 297.92 254.51 297.53 254.51C297.14 254.51 296.85 255.11 297 255.7Z" fill="#263238"/>
<path d="M297.37 256.74C298.361 258.452 299.583 260.02 301 261.4C300.641 261.758 300.207 262.033 299.731 262.205C299.254 262.378 298.745 262.444 298.24 262.4L297.37 256.74Z" fill="#DE5753"/>
<path d="M294.25 252.73C294.161 252.727 294.075 252.691 294.01 252.63C293.945 252.563 293.909 252.473 293.909 252.38C293.909 252.287 293.945 252.197 294.01 252.13C294.401 251.729 294.884 251.428 295.417 251.254C295.95 251.08 296.517 251.037 297.07 251.13C297.116 251.139 297.159 251.158 297.197 251.184C297.235 251.211 297.268 251.244 297.293 251.283C297.318 251.323 297.335 251.366 297.343 251.412C297.351 251.458 297.35 251.505 297.34 251.55C297.331 251.596 297.312 251.639 297.286 251.677C297.259 251.715 297.226 251.748 297.187 251.773C297.148 251.798 297.104 251.815 297.058 251.823C297.012 251.831 296.965 251.83 296.92 251.82C296.48 251.757 296.032 251.801 295.613 251.947C295.194 252.093 294.815 252.338 294.51 252.66C294.473 252.688 294.432 252.709 294.387 252.721C294.342 252.733 294.296 252.736 294.25 252.73Z" fill="#263238"/>
<path d="M298.86 264.74C298.669 267.154 297.639 269.425 295.95 271.16C294.834 272.306 293.464 273.173 291.95 273.69C290.501 274.193 288.95 274.327 287.437 274.081C285.923 273.835 284.495 273.216 283.28 272.28C279 269.1 278.44 264.77 276.86 257.52C276.471 255.839 276.518 254.087 276.997 252.429C277.476 250.772 278.371 249.265 279.596 248.05C280.821 246.836 282.337 245.955 283.999 245.491C285.66 245.027 287.413 244.996 289.09 245.4C296.73 247.21 299.41 257.92 298.86 264.74Z" fill="#E4897B"/>
<path d="M279.61 269.35C282.61 271.24 293.95 265.93 292.08 257C292.08 257 296.55 252.11 296.33 246.48C296.11 240.85 292.33 238.48 288.21 239.54C284.55 240.43 284.56 242.42 284.56 242.42C284.56 242.42 267.4 243.63 270.72 250.74C263.42 258 275.92 267 279.61 269.35Z" fill="#263238"/>
<path d="M289 258.39C289.405 260.191 290.393 261.808 291.81 262.99C293.68 264.53 295.2 263.17 295.17 260.99C295.17 258.99 294.17 255.82 292 255.13C289.83 254.44 288.58 256.22 289 258.39Z" fill="#E4897B"/>
<path opacity="0.2" d="M298.34 267.26C297.841 268.72 297.025 270.052 295.95 271.16C294.834 272.306 293.464 273.173 291.95 273.69C290.933 273.175 289.957 272.584 289.03 271.92L290.55 268.19C290.55 268.19 295.21 270.47 298.34 267.26Z" fill="black"/>
<path d="M282.05 278.5L280.77 269.73C280.77 269.73 286.48 265.73 292.46 268.42L301.46 279.27L282.05 278.5Z" fill="#E4897B"/>
<path d="M302.5 278.19L300.41 275.06C300.41 275.06 285.25 269.45 278.64 276.64C278.64 276.64 293.43 284.46 302.5 278.19Z" fill="#6EC9A4"/>
<path opacity="0.2" d="M302.5 278.19L300.41 275.06C300.41 275.06 285.25 269.45 278.64 276.64C278.64 276.64 293.43 284.46 302.5 278.19Z" fill="black"/>
<path d="M244.29 363.22L238.58 359.54L240.77 356.27L246.72 347.39L252.44 351.07L245.86 360.88L244.29 363.22Z" fill="#E4897B"/>
<path d="M239 359.07L247 358.99C247.13 358.993 247.255 359.039 247.356 359.12C247.458 359.201 247.529 359.314 247.56 359.44L248.9 365.25C248.949 365.5 248.901 365.759 248.765 365.975C248.629 366.19 248.417 366.346 248.17 366.41H247.96C245.38 366.41 243.51 366.25 240.28 366.28C238.28 366.28 232.28 366.57 229.54 366.59C226.8 366.61 226.4 363.91 227.54 363.65C232.54 362.5 236.36 360.94 237.96 359.47C238.246 359.214 238.616 359.072 239 359.07Z" fill="#263238"/>
<path d="M240.54 354.06L251 356.88L307.78 313.8L278.65 307.42C276.569 306.975 274.403 307.174 272.438 307.99C270.473 308.807 268.803 310.202 267.65 311.99L240.54 354.06Z" fill="#263238"/>
<path opacity="0.2" d="M240.54 354.06L251 356.88L307.78 313.8L278.65 307.42C276.569 306.975 274.403 307.174 272.438 307.99C270.473 308.807 268.803 310.202 267.65 311.99L240.54 354.06Z" fill="black"/>
<path d="M209.5 363.43L203.6 360.06L205.62 356.68L211.09 347.5L216.99 350.87L210.94 361.01L209.5 363.43Z" fill="#E4897B"/>
<path d="M203.83 358.93H211.83C211.96 358.931 212.086 358.976 212.188 359.058C212.29 359.14 212.361 359.253 212.39 359.38L213.68 365.21C213.725 365.461 213.673 365.72 213.534 365.934C213.394 366.148 213.178 366.3 212.93 366.36H212.72C210.15 366.36 208.27 366.16 205.04 366.16C203.04 366.16 197.04 366.37 194.3 366.37C191.56 366.37 191.19 363.65 192.3 363.37C197.3 362.27 201.15 360.75 202.77 359.3C203.068 359.053 203.444 358.922 203.83 358.93Z" fill="#263238"/>
<path d="M321.48 336.42L281.78 336.52C280.78 333 279.52 320.75 275.64 305.6C274.59 301.49 273.34 297.17 271.87 292.74C270.649 288.734 269.166 284.812 267.43 281C271.022 278.829 274.969 277.309 279.09 276.51C296.66 273.51 312.78 281.25 312.78 281.25C312.78 281.25 319.75 300.65 321.48 336.42Z" fill="#6EC9A4"/>
<path opacity="0.2" d="M275.64 305.6C274.59 301.49 273.34 297.17 271.87 292.74L274.64 291.62C274.64 291.62 279 301.45 275.64 305.6Z" fill="black"/>
<path d="M258.27 312.4L262.88 314.58L264.64 306.82C264.64 306.82 260.96 305.53 258.2 307.41L258.27 312.4Z" fill="#E4897B"/>
<path d="M269.49 317.21L269.7 310.14L264.64 306.82L262.88 314.58L269.49 317.21Z" fill="#E4897B"/>
<path d="M272.64 293.15C264.97 297.3 256.21 301.15 249.54 306.58C249.39 306.71 249.44 306.77 249.61 306.19C249.642 305.821 249.594 305.449 249.47 305.1C249.359 304.72 249.114 304.393 248.78 304.18C248.65 304.13 248.73 304.25 248.91 304.37C249.16 304.526 249.424 304.656 249.7 304.76C252.78 305.93 257.05 306.32 260.5 306.76L261.02 311.91C259.93 312.22 258.91 312.43 257.84 312.63C253.84 313.32 249.69 313.81 245.48 312.42C243.671 311.876 242.144 310.649 241.224 308.999C240.304 307.349 240.062 305.405 240.55 303.58C242.61 296.27 261.25 287.15 268.09 283.76L272.64 293.16V293.15Z" fill="#DC897C"/>
<path d="M279.91 328.07L278.13 332.63C278.13 332.63 256.86 306.35 245.13 304.85C233.4 303.35 206.13 353.29 206.13 353.29L216.47 356.42L245.57 330.02C257.57 350.96 271.92 366.32 288.98 366.32H305.64C324.27 366.32 324.48 345.54 320.8 327.92L279.91 328.07Z" fill="#263238"/>
<path d="M267.43 281C260.76 283.44 252.92 290.84 252.92 290.84C252.92 290.84 259.52 302.28 260.18 301.84C260.84 301.4 274.38 297.52 274.38 297.52C274.38 297.52 277.14 293.94 275.02 287.88C274.469 286.169 273.477 284.632 272.145 283.425C270.813 282.217 269.187 281.381 267.43 281Z" fill="#6EC9A4"/>
<path d="M334.41 355.93L341.66 356.29L337.83 363.37C337.83 363.37 331.38 362.66 331.89 359.37L334.41 355.93Z" fill="#E4897B"/>
<path d="M347.6 360.33L342.25 365.3L337.83 363.37L341.66 356.29L347.6 360.33Z" fill="#E4897B"/>
<path d="M109.72 284.22C114.58 289.12 119.37 294.61 125.19 298.32C125.19 298.32 125.55 298.51 125.58 298.54C125.423 298.482 125.257 298.455 125.09 298.46C124.94 298.46 125.18 298.46 125.44 298.46C132.08 296.58 138.25 292.25 144.36 288.92C144.833 288.635 145.394 288.534 145.937 288.636C146.479 288.738 146.965 289.036 147.303 289.473C147.64 289.911 147.804 290.456 147.765 291.007C147.726 291.558 147.486 292.075 147.09 292.46C142.33 296.87 129.5 308.66 122.76 306.19C118.64 304.68 115.2 301.84 111.96 299.11C108.795 296.367 105.812 293.421 103.03 290.29C99.22 285.76 105.58 279.99 109.72 284.23V284.22Z" fill="#E9B376"/>
<path d="M118.08 291.14C117.23 297.5 112.08 303.74 112.08 303.74L111 303L105.74 299.51C105.74 299.51 105.64 299.21 105.49 298.68C105.34 298.15 105.15 297.53 104.92 296.68C103.71 292.44 101.53 284.51 101.26 281.22C107.79 281.07 110.73 284.18 118.08 291.14Z" fill="#6EC9A4"/>
<path opacity="0.7" d="M118.08 291.14C117.23 297.5 112.08 303.74 112.08 303.74L111 303L105.74 299.51C105.74 299.51 105.64 299.21 105.49 298.68C105.34 298.15 105.15 297.53 104.92 296.68C103.71 292.44 101.53 284.51 101.26 281.22C107.79 281.07 110.73 284.18 118.08 291.14Z" fill="white"/>
<path opacity="0.2" d="M111 303L105.74 299.51C105.74 299.51 105.64 299.21 105.49 298.68C105.685 297.07 105.979 295.474 106.37 293.9C107.756 294.99 108.888 296.369 109.687 297.94C110.487 299.512 110.935 301.238 111 303Z" fill="black"/>
<path d="M104.6 322.5L109.09 330.36C121.09 327.56 159.67 321.68 164.4 334.91C170.29 351.34 127.76 364.45 104.23 365.25C80.7 366.05 60.17 360.45 75.05 326.14L104.6 322.5Z" fill="#263238"/>
<path opacity="0.2" d="M104.6 322.5L109.09 330.36C121.09 327.56 159.67 321.68 164.4 334.91C170.29 351.34 127.76 364.45 104.23 365.25C80.7 366.05 60.17 360.45 75.05 326.14L104.6 322.5Z" fill="black"/>
<path d="M157.59 358.14C157.563 358.157 157.532 358.166 157.5 358.166C157.468 358.166 157.437 358.157 157.41 358.14C157.396 358.118 157.388 358.092 157.388 358.065C157.388 358.039 157.396 358.013 157.41 357.99C157.49 357.73 158.27 355.47 159.06 355.23C159.143 355.21 159.23 355.211 159.312 355.234C159.394 355.257 159.469 355.3 159.53 355.36C159.638 355.452 159.721 355.57 159.77 355.703C159.819 355.836 159.833 355.98 159.81 356.12C159.681 356.545 159.422 356.919 159.07 357.19C158.611 357.557 158.115 357.875 157.59 358.14ZM157.79 357.71C158.525 357.391 159.118 356.815 159.46 356.09C159.482 355.996 159.476 355.897 159.442 355.806C159.408 355.715 159.349 355.637 159.27 355.58C159.248 355.552 159.218 355.532 159.184 355.521C159.15 355.511 159.114 355.51 159.08 355.52C159.013 355.545 158.952 355.582 158.9 355.63C158.407 356.25 158.03 356.955 157.79 357.71Z" fill="#263238"/>
<path d="M157.54 358.17C157.52 358.187 157.495 358.195 157.47 358.195C157.444 358.195 157.42 358.187 157.4 358.17C157.32 358.11 156.24 356.74 156.4 355.81C156.419 355.695 156.462 355.585 156.525 355.487C156.589 355.389 156.672 355.305 156.77 355.24C156.855 355.164 156.962 355.117 157.075 355.106C157.188 355.095 157.302 355.121 157.4 355.18C157.97 355.59 157.9 357.42 157.62 358.12V358.19L157.54 358.17ZM156.93 355.49C156.83 355.57 156.763 355.684 156.74 355.81C156.77 356.503 157.026 357.167 157.47 357.7C157.64 356.92 157.59 355.63 157.25 355.4C157.25 355.4 157.15 355.32 156.98 355.4V355.45L156.93 355.49Z" fill="#263238"/>
<path d="M116.22 362C116.235 361.975 116.258 361.955 116.284 361.943C116.311 361.93 116.341 361.926 116.37 361.93C116.397 361.932 116.422 361.943 116.442 361.961C116.462 361.979 116.476 362.004 116.48 362.03C116.54 362.3 116.95 364.66 116.38 365.25C116.316 365.307 116.238 365.347 116.153 365.364C116.069 365.382 115.982 365.377 115.9 365.35C115.759 365.327 115.628 365.265 115.52 365.172C115.412 365.078 115.333 364.956 115.29 364.82C115.191 364.391 115.237 363.941 115.42 363.54C115.632 363 115.9 362.484 116.22 362ZM116.22 362.48C115.733 363.114 115.489 363.902 115.53 364.7C115.557 364.796 115.613 364.882 115.69 364.946C115.766 365.01 115.861 365.05 115.96 365.06C115.988 365.079 116.021 365.089 116.055 365.089C116.089 365.089 116.122 365.079 116.15 365.06C116.195 365.007 116.229 364.946 116.25 364.88C116.4 364.087 116.4 363.273 116.25 362.48H116.22Z" fill="#263238"/>
<path d="M131.62 350.09L121.94 353.54L117.29 355.2L118.48 360.29L122.98 359.33L133.98 356.98L131.62 350.09Z" fill="#EBB376"/>
<path d="M119.75 360.53L118.93 354.53C118.919 354.451 118.892 354.375 118.851 354.306C118.811 354.237 118.757 354.177 118.692 354.13C118.628 354.082 118.555 354.048 118.477 354.029C118.4 354.011 118.319 354.007 118.24 354.02L115.24 354.52C115.24 354.52 111.24 354.89 110.41 355.93C108.07 358.93 109.53 372.27 111.09 372.74C111.66 372.91 112.26 372.13 112.51 371.59C113.3 369.87 114.69 365.38 115.37 363.96C116.15 362.29 118.37 361.48 119.29 361.19C119.435 361.157 119.562 361.071 119.647 360.949C119.732 360.827 119.769 360.678 119.75 360.53Z" fill="#6EC9A4"/>
<path d="M116.24 362C116.262 361.985 116.288 361.976 116.315 361.976C116.342 361.976 116.368 361.985 116.39 362C116.48 362 118.1 362.7 118.39 363.59C118.425 363.702 118.438 363.819 118.428 363.936C118.417 364.053 118.384 364.166 118.33 364.27C118.298 364.381 118.229 364.477 118.134 364.543C118.039 364.608 117.925 364.639 117.81 364.63C117.12 364.55 116.29 362.91 116.2 362.17V362C116.213 361.997 116.227 361.997 116.24 362ZM118.08 364.05C118.12 363.927 118.12 363.794 118.08 363.67C117.89 363.1 116.99 362.6 116.53 362.37C116.75 363.14 117.42 364.24 117.83 364.28C117.83 364.28 117.95 364.28 118.04 364.11V364.05H118.08Z" fill="#263238"/>
<path opacity="0.2" d="M131.62 350.09L121.94 353.54L122.98 359.33L133.98 356.98L131.62 350.09Z" fill="black"/>
<path d="M124.7 360.2L127.48 360.4L125.62 350.82L122.46 352.56L124.7 360.2Z" fill="#6EC9A4"/>
<path opacity="0.6" d="M124.7 360.2L127.48 360.4L125.62 350.82L122.46 352.56L124.7 360.2Z" fill="white"/>
<path opacity="0.2" d="M84.3099 323L98.8099 339.08C98.8099 339.08 114.81 338.72 134.31 348.24C134.31 348.24 155.2 339.61 157.12 332.44C159.64 323.05 109.12 330.39 109.12 330.39L84.3099 323Z" fill="black"/>
<path d="M104.45 329.43L74.88 326C75.4463 322.946 75.7806 319.854 75.88 316.75C75.9984 312.327 75.8247 307.9 75.36 303.5C74.95 299.29 74.36 294.45 73.36 288.77C73.1599 287.754 73.1897 286.707 73.447 285.704C73.7043 284.701 74.1828 283.769 74.8472 282.975C75.5117 282.181 76.3453 281.546 77.2871 281.116C78.2289 280.686 79.2549 280.472 80.29 280.49C81.48 280.49 82.73 280.55 84.01 280.63C88.5382 280.833 93.0463 281.357 97.5 282.2C98.94 282.49 100.43 282.85 101.86 283.2C106.99 284.53 110.17 290.99 109.73 296.2C109.557 300.249 109.109 304.282 108.39 308.27C107.48 314.15 106.41 319.89 104.45 329.43Z" fill="#6EC9A4"/>
<path opacity="0.7" d="M104.45 329.43L74.88 326C75.4463 322.946 75.7806 319.854 75.88 316.75C75.9984 312.327 75.8247 307.9 75.36 303.5C74.95 299.29 74.36 294.45 73.36 288.77C73.1599 287.754 73.1897 286.707 73.447 285.704C73.7043 284.701 74.1828 283.769 74.8472 282.975C75.5117 282.181 76.3453 281.546 77.2871 281.116C78.2289 280.686 79.2549 280.472 80.29 280.49C81.48 280.49 82.73 280.55 84.01 280.63C88.5382 280.833 93.0463 281.357 97.5 282.2C98.94 282.49 100.43 282.85 101.86 283.2C106.99 284.53 110.17 290.99 109.73 296.2C109.557 300.249 109.109 304.282 108.39 308.27C107.48 314.15 106.41 319.89 104.45 329.43Z" fill="white"/>
<path opacity="0.2" d="M75.8999 316.76C76.0184 312.337 75.8447 307.911 75.3799 303.51C79.0799 299.14 82.5799 295.51 82.5799 295.51C82.5799 295.51 88.3799 310.44 75.8999 316.76Z" fill="black"/>
<path d="M80.57 293.89C80.91 300.22 80.85 310.07 82 316.12L81.7 315.38C81.5 315.09 81.62 315.38 81.83 315.54C82.1005 315.808 82.3877 316.059 82.69 316.29C86.69 319.29 91.49 321.6 96 323.99L101.69 326.92C102.183 327.168 102.568 327.588 102.772 328.1C102.976 328.613 102.984 329.183 102.795 329.702C102.606 330.22 102.234 330.651 101.748 330.913C101.262 331.174 100.697 331.248 100.16 331.12C97.99 330.6 95.91 329.98 93.8 329.34C87.8 327.34 81.64 325.42 76.48 321.51C75.4722 320.728 74.6891 319.693 74.21 318.51C71.9 310.31 71.72 302.39 71.55 294.03C71.76 288.2 80.2 288.09 80.55 293.92L80.57 293.89Z" fill="#E9B376"/>
<path d="M109.67 326.56L107.87 325.25C107.536 325.009 107.15 324.851 106.743 324.79C106.335 324.729 105.92 324.767 105.53 324.9L101.83 326.14C101.101 326.387 100.441 326.804 99.9051 327.357C99.3694 327.91 98.9734 328.583 98.75 329.32L98.47 330.25C101.31 332.61 106.12 333.08 106.12 333.08L107.47 333.36C107.746 333.427 108.033 333.438 108.314 333.393C108.595 333.348 108.864 333.248 109.106 333.098C109.348 332.948 109.558 332.752 109.723 332.521C109.889 332.289 110.006 332.027 110.07 331.75L110.67 329.07C110.766 328.6 110.723 328.111 110.545 327.665C110.368 327.219 110.063 326.835 109.67 326.56Z" fill="#EBB376"/>
<path d="M77.8699 280.9C72.0899 282.97 70.4299 288.01 70.3099 298.52C73.3099 301.25 82.4199 301.4 82.4199 301.4C82.4199 301.4 83.9999 285.46 77.8699 280.9Z" fill="#6EC9A4"/>
<path d="M147.89 332.35V334.73C147.89 335.34 147.17 335.59 146.56 335.59H99C98.38 335.59 97.65 335.34 97.65 334.73V332.35H147.89Z" fill="#263238"/>
<path opacity="0.4" d="M147.89 332.35V334.73C147.89 335.34 147.17 335.59 146.56 335.59H99C98.38 335.59 97.65 335.34 97.65 334.73V332.35H147.89Z" fill="white"/>
<path opacity="0.2" d="M147.89 332.35V334.73C147.89 335.34 147.17 335.59 146.56 335.59H115.16C114.55 335.59 113.82 335.34 113.82 334.73V332.35H147.89Z" fill="black"/>
<path d="M155.86 307.61L150.19 333.32C150.085 333.731 149.848 334.096 149.516 334.36C149.184 334.624 148.774 334.771 148.35 334.78H117.35C117.157 334.775 116.968 334.725 116.797 334.634C116.627 334.544 116.48 334.415 116.367 334.258C116.255 334.101 116.181 333.921 116.15 333.73C116.119 333.539 116.133 333.344 116.19 333.16L121.85 307.65C121.966 307.261 122.212 306.923 122.547 306.694C122.882 306.464 123.285 306.357 123.69 306.39H154.69C155.52 306.39 156 306.77 155.86 307.61Z" fill="#263238"/>
<path opacity="0.4" d="M155.86 307.61L150.19 333.32C150.085 333.731 149.848 334.096 149.516 334.36C149.184 334.624 148.774 334.771 148.35 334.78H118.43C118.237 334.774 118.048 334.724 117.877 334.634C117.706 334.543 117.559 334.415 117.446 334.258C117.333 334.102 117.257 333.921 117.225 333.731C117.193 333.54 117.205 333.345 117.26 333.16L122.93 307.65C123.046 307.261 123.292 306.923 123.627 306.694C123.962 306.464 124.365 306.357 124.77 306.39H154.69C155.52 306.39 156 306.77 155.86 307.61Z" fill="white"/>
<path opacity="0.2" d="M140.59 320.67C140.491 321.713 140.026 322.687 139.277 323.419C138.528 324.151 137.545 324.594 136.5 324.67C134.77 324.67 133.74 322.88 134.24 320.67C134.74 318.46 136.45 316.75 138.14 316.67C137.65 318.87 138.71 320.67 140.43 320.67H140.59Z" fill="black"/>
<path d="M145.5 293.28L152.16 293.45L149.16 286.71C149.16 286.71 143.22 286.92 143.45 289.98L145.5 293.28Z" fill="#EBB376"/>
<path d="M157.87 290.17L153.31 285.25L149.14 286.71L152.16 293.45L157.87 290.17Z" fill="#EBB376"/>
<path d="M82.55 280.56C81.87 280.51 83.95 288.86 94.05 290.92C104.15 292.98 103.37 283.69 102.58 281.36C102.58 281.36 89.3 281 82.55 280.56Z" fill="#EBB376"/>
<path d="M85.32 247.91C85.32 247.91 91.11 241.49 101.7 244.8C112.29 248.11 111.84 267.01 106.46 273.87C98.0343 273.574 89.6055 274.361 81.38 276.21C81.38 276.21 76.28 262.5 78.81 254.44C81.34 246.38 85.32 247.91 85.32 247.91Z" fill="#263238"/>
<path d="M87.45 266.76C88.12 271.22 88.64 279.3 85.45 281.86C85.45 281.86 89.61 281.72 97.68 288.1C100.61 284.78 98.88 283.41 98.88 283.41C94.11 281.7 94.38 278.1 95.35 274.81L87.45 266.76Z" fill="#EBB376"/>
<path opacity="0.2" d="M90.6899 270.05L95.3999 274.81C95.1623 275.581 94.9917 276.37 94.8899 277.17C93.0599 276.69 90.6099 274.36 90.4999 272.39C90.4223 271.605 90.4866 270.812 90.6899 270.05Z" fill="black"/>
<path d="M84.76 257.66C85.26 264.79 85.33 267.81 88.92 271.66C94.3299 277.38 102.92 275.66 104.47 268.66C105.92 262.34 104.85 251.74 97.93 248.61C96.4703 247.887 94.8442 247.567 93.2196 247.683C91.595 247.799 90.0307 248.347 88.6884 249.269C87.346 250.191 86.2742 251.455 85.5836 252.931C84.893 254.406 84.6087 256.038 84.76 257.66Z" fill="#EBB376"/>
<path d="M93.5399 259.85C93.5399 260.46 93.8699 260.95 94.2599 260.97C94.6499 260.99 94.9299 260.51 94.9199 259.91C94.9099 259.31 94.5799 258.81 94.1999 258.8C93.8199 258.79 93.5199 259.25 93.5399 259.85Z" fill="#263238"/>
<path d="M101 259.93C101 260.53 101.34 261.03 101.72 261.05C102.1 261.07 102.39 260.59 102.38 259.99C102.37 259.39 102.04 258.89 101.66 258.88C101.28 258.87 101 259.33 101 259.93Z" fill="#263238"/>
<path d="M101.46 258.9L102.85 258.54C102.85 258.54 102.16 259.64 101.46 258.9Z" fill="#263238"/>
<path d="M98.74 261.16C99.2992 262.553 100.032 263.87 100.92 265.08C100.62 265.284 100.279 265.418 99.9204 265.472C99.562 265.525 99.1961 265.497 98.85 265.39L98.74 261.16Z" fill="#D58745"/>
<path d="M92.3399 256.05C92.385 256.057 92.4311 256.054 92.4745 256.04C92.5179 256.026 92.5575 256.002 92.5899 255.97C92.9021 255.681 93.2815 255.475 93.6937 255.37C94.1059 255.265 94.5377 255.265 94.9499 255.37C94.9919 255.384 95.0363 255.388 95.0802 255.384C95.1242 255.38 95.1668 255.366 95.2053 255.345C95.2438 255.323 95.2774 255.294 95.304 255.259C95.3306 255.223 95.3497 255.183 95.3599 255.14C95.3848 255.047 95.3727 254.948 95.326 254.864C95.2794 254.78 95.2019 254.718 95.1099 254.69C94.5881 254.55 94.0393 254.545 93.5147 254.674C92.9901 254.803 92.5069 255.063 92.1099 255.43C92.0458 255.495 92.0099 255.583 92.0099 255.675C92.0099 255.767 92.0458 255.855 92.1099 255.92C92.1674 255.991 92.2496 256.037 92.3399 256.05Z" fill="#263238"/>
<path d="M103.9 256.11C103.98 256.141 104.069 256.141 104.15 256.11C104.189 256.086 104.222 256.054 104.248 256.016C104.275 255.979 104.293 255.936 104.302 255.891C104.312 255.847 104.312 255.8 104.303 255.755C104.294 255.711 104.276 255.668 104.25 255.63C103.975 255.137 103.59 254.713 103.126 254.393C102.661 254.072 102.129 253.862 101.57 253.78C101.525 253.777 101.481 253.784 101.439 253.799C101.397 253.815 101.359 253.839 101.327 253.87C101.295 253.901 101.27 253.938 101.253 253.98C101.236 254.021 101.228 254.066 101.23 254.11C101.232 254.204 101.267 254.294 101.329 254.363C101.392 254.433 101.477 254.478 101.57 254.49C102.012 254.558 102.432 254.726 102.798 254.983C103.164 255.24 103.466 255.578 103.68 255.97C103.706 256.007 103.738 256.038 103.776 256.062C103.814 256.086 103.856 256.102 103.9 256.11Z" fill="#263238"/>
<path d="M94 258.82L95.39 258.47C95.39 258.47 94.73 259.56 94 258.82Z" fill="#263238"/>
<path d="M86.24 261.94C86.24 261.94 91.74 257.62 90.49 250.86C90.49 250.86 100.33 246.97 104.21 256.86C104.21 256.86 105.03 248.38 95.78 246.72C86.53 245.06 75.58 257.6 86.06 267.11L86.24 261.94Z" fill="#263238"/>
<path d="M82.49 263.42C82.8468 264.082 83.3308 264.666 83.9144 265.14C84.4979 265.613 85.1693 265.967 85.89 266.18C87.76 266.69 88.6 264.85 88 262.95C87.45 261.24 85.82 258.95 84 259.24C82.18 259.53 81.56 261.73 82.49 263.42Z" fill="#EBB376"/>
<path d="M105.29 261.06C105.245 261.06 105.201 261.045 105.165 261.018C105.129 260.991 105.103 260.953 105.09 260.91C101.56 248.48 89.91 251.04 89.79 251.06C89.7644 251.066 89.7379 251.067 89.7119 251.062C89.686 251.058 89.6612 251.049 89.6389 251.035C89.6166 251.021 89.5973 251.003 89.582 250.981C89.5668 250.96 89.5559 250.936 89.55 250.91C89.5441 250.884 89.5433 250.858 89.5476 250.832C89.5519 250.806 89.5614 250.781 89.5753 250.759C89.5892 250.737 89.6074 250.717 89.6288 250.702C89.6502 250.687 89.6744 250.676 89.7 250.67C89.82 250.67 101.85 248 105.48 260.8C105.488 260.826 105.49 260.853 105.487 260.879C105.484 260.906 105.476 260.931 105.463 260.955C105.45 260.978 105.432 260.998 105.411 261.015C105.39 261.031 105.366 261.043 105.34 261.05L105.29 261.06Z" fill="#263238"/>
<path d="M99.2 267.46C98.8509 268.278 98.5635 269.12 98.34 269.98H97.87C95.76 269.75 94.87 268.98 94.49 268.13C94.3197 267.726 94.2477 267.287 94.28 266.85C94.2954 266.602 94.3424 266.356 94.42 266.12C95.6641 266.84 97.0489 267.284 98.48 267.42C98.92 267.44 99.2 267.46 99.2 267.46Z" fill="#263238"/>
<path d="M98.48 267.38L98.21 268.11C96.21 267.9 94.84 267.48 94.28 266.81C94.2953 266.562 94.3424 266.316 94.42 266.08C95.6641 266.8 97.0489 267.244 98.48 267.38Z" fill="white"/>
<path d="M97.87 269.94C95.76 269.71 94.87 268.94 94.49 268.09C95.2915 268.194 96.0694 268.434 96.79 268.8C97.2593 269.059 97.6366 269.457 97.87 269.94Z" fill="#DE5753"/>
<path d="M97.53 300.78C97.4982 300.782 97.4664 300.777 97.4369 300.765C97.4075 300.753 97.3812 300.734 97.36 300.71C92.0465 295.013 88.0399 288.225 85.62 280.82C85.6047 280.759 85.614 280.695 85.6457 280.64C85.6775 280.586 85.7293 280.547 85.79 280.53C85.8196 280.523 85.8503 280.521 85.8804 280.526C85.9106 280.53 85.9395 280.541 85.9656 280.557C85.9916 280.572 86.0143 280.593 86.0322 280.618C86.0501 280.643 86.063 280.671 86.07 280.7C88.4254 287.902 92.2993 294.514 97.43 300.09C98.03 298.09 100.52 288.59 96.77 281.31C96.7517 281.256 96.7533 281.197 96.7746 281.144C96.7958 281.091 96.8354 281.047 96.886 281.021C96.9366 280.994 96.9951 280.987 97.0508 280.999C97.1065 281.012 97.1559 281.044 97.19 281.09C101.48 289.42 97.79 300.51 97.75 300.62C97.7368 300.659 97.7144 300.693 97.6848 300.721C97.6552 300.749 97.6192 300.769 97.58 300.78H97.53Z" fill="#263238"/>
<path d="M97.84 300.36L98.6 301.36C98.6681 301.445 98.7053 301.551 98.7053 301.66C98.7053 301.769 98.6681 301.875 98.6 301.96L97.83 302.96C97.784 303.015 97.7266 303.059 97.6618 303.089C97.597 303.119 97.5264 303.135 97.455 303.135C97.3835 303.135 97.3129 303.119 97.2481 303.089C97.1834 303.059 97.126 303.015 97.08 302.96L96.36 302.14C96.2967 302.057 96.2625 301.955 96.2625 301.85C96.2625 301.745 96.2967 301.644 96.36 301.56L97 300.4C97.0418 300.328 97.1012 300.267 97.1727 300.223C97.2442 300.18 97.3255 300.155 97.409 300.151C97.4926 300.147 97.5759 300.164 97.6512 300.201C97.7265 300.237 97.7914 300.292 97.84 300.36Z" fill="white"/>
<path opacity="0.7" d="M77.8699 280.9C72.0899 282.97 70.4299 288.01 70.3099 298.52C73.3099 301.25 82.4199 301.4 82.4199 301.4C82.4199 301.4 83.9999 285.46 77.8699 280.9Z" fill="white"/>
<path d="M138.34 361.11L148.48 362.78L153.35 363.58L154.77 358.55L150.37 357.21L139.61 353.94L138.34 361.11Z" fill="#EBB376"/>
<path d="M153.78 357.73L151.59 363.37C151.561 363.446 151.548 363.526 151.55 363.607C151.553 363.687 151.571 363.767 151.605 363.84C151.638 363.914 151.686 363.98 151.745 364.035C151.805 364.09 151.874 364.132 151.95 364.16L154.78 365.16C154.78 365.16 158.49 366.78 159.69 366.26C163.2 364.75 168.37 352.38 167.23 351.26C166.81 350.83 165.91 351.26 165.43 351.58C163.91 352.7 160.52 355.95 159.24 356.87C157.74 357.95 155.45 357.61 154.46 357.4C154.326 357.365 154.184 357.379 154.059 357.439C153.934 357.5 153.835 357.603 153.78 357.73Z" fill="#6EC9A4"/>
<path opacity="0.2" d="M138.34 361.11L148.48 362.78L150.37 357.21L139.61 353.94L138.34 361.11Z" fill="black"/>
<path d="M148.62 356.16C148.62 356.16 107.28 332.92 93 333.58C78.72 334.24 76.68 346.82 82.56 354.69C88.44 362.56 99.32 364.48 99.32 364.48C99.32 364.48 91.93 354 93 351.08C94.07 348.16 98.25 352.24 98.25 352.24C98.25 352.24 124.25 360.64 147.02 362.57L148.62 356.16Z" fill="#263238"/>
<path d="M149.29 355.52L146.95 353.95L143.94 363.18H147.55L149.29 355.52Z" fill="#6EC9A4"/>
<path opacity="0.6" d="M149.29 355.52L146.95 353.95L143.94 363.18H147.55L149.29 355.52Z" fill="white"/>
</g>
<defs>
<clipPath id="clip0_4_266">
<rect width="500" height="372.764" fill="white"/>
</clipPath>
</defs>
</svg>
